<mxfile host="Electron" agent="Mozilla/5.0 (Windows NT 10.0; Win64; x64) AppleWebKit/537.36 (KHTML, like Gecko) draw.io/24.7.8 Chrome/128.0.6613.36 Electron/32.0.1 Safari/537.36" version="24.7.8">
  <diagram name="Page-1" id="vpDn_ogkh2OqFF6v1r-j">
    <mxGraphModel dx="1491" dy="639" grid="0" gridSize="10" guides="1" tooltips="1" connect="1" arrows="1" fold="1" page="0" pageScale="1" pageWidth="2336" pageHeight="1654" math="0" shadow="0">
      <root>
        <mxCell id="0" />
        <mxCell id="1" parent="0" />
        <mxCell id="4rlQAcrJpYn7l9h745Ok-1" value="&lt;h1&gt;&lt;span style=&quot;font-size: 31px;&quot;&gt;&lt;font face=&quot;Comic Sans MS&quot;&gt;CNN with Blazepose Architecture and Mediapipe&lt;/font&gt;&lt;/span&gt;&lt;/h1&gt;&lt;h1&gt;&lt;span style=&quot;font-size: 31px;&quot;&gt;&lt;font face=&quot;xYsN5zl9KmUUCwutaEZC&quot;&gt;&amp;nbsp;Pose Solution for Posture Detection&lt;/font&gt;&lt;/span&gt;&lt;/h1&gt;" style="text;html=1;align=center;verticalAlign=middle;resizable=0;points=[];autosize=1;strokeColor=#6F0000;fillColor=#a20025;fontColor=#ffffff;" vertex="1" parent="1">
          <mxGeometry x="72" y="100" width="752" height="137" as="geometry" />
        </mxCell>
        <mxCell id="4rlQAcrJpYn7l9h745Ok-2" value="" style="shape=stencil(7VnJbhsxDP0aXwlJ1MZzmv5HgDiN0TQOnKTL35eCIVvieJ5boJcCAXKwHb7h9rhIs+Gb18e7l+0muNe3w/7r9sfu/u1xw582IeyeH7eH3Zt+2vDthm8e9oftl8P+/fn++P3lrkm2T9/239sTfh5xUklqQwX36/iLp/ZN/z4f5Z92z6O8UIyTfKKM5essrz/4dXnvHDk3GxTJJ6ghGYCQAyrU5egnQIgUkYZMaY4RO/IVAJhSmQGZGGioQiVNgBioFACIlMIMEBilok7PUUoJmlQ88exDVmYApzNT4BmgcZN1gBpg8qA6AzApFoqzSSVRAFGKjqLMgEohrwM4kZs1VEeJAcARzz7UAPMQMsU8A5gYaAiuB/EEUCNBxflCbmZrzeSBBu8pJ6shg8RVYmd9FpCG0otlCGoGBmUqc8soAnmh8vPzNcsFNAANEFt5D/wtNmWlUAH2V3ILeVj9VJ2Vd4Cl0jvuST5TBfZ7LYO6AACDlBHMFiAIoKQP1gUPXFDA0ueIfNAqiRYgaJBw58CQZcYaarEAQYUWFrwOuDJ9n0snQITEFjt36qm2V4hk2p3OlQwLwRSa+B6DtUKeny+p530tQmHOsoTewteaXSnWAzRpdVsR47ImLQIA9yE2AlDDjheCijYkXYjMPtKmO8iC9i8bJZ0qyOncZ9KQN1RtbegsEi0IkHpMhsQVBwHe+MB9SqzlwSROGEcp9J47ABBZlRqmbTcNmHy88CEiektP0xClirqeziWxALQtKCAbkzwcJQqoJkq6PyCTpK++A1uRDxqluKA3o3rwdhluFQcasWa6pgUAaYiWfK1rXGHroqbRmqcFZDq3hvXamlcsAM3oVtPzBNVMw4rL3YA/7a2pk3mgN+reGlZLb+50/DcAn+1uKxnmQSdoMI2s9uXv8hnD7vPD+fIiQNNqEl16YlbkzWlVItwNTywYeIF2Z29HtNZCQm2S6pxk3eUrmIfR+qs7DOqqH7v5x27+P+zm0ea5OuxD7BYPhYC2hTZpjQa8PGupGWq0YzBa86pt2FprBfjAwd7laZQSaHa81JDh5hlTZ84JwDCsSbk0m5QFjoTs7JknJ3iblxe3eUkg+dqd0Tw4kzZB0CI1r2HWELWLoPuRbG/CooclqtuHWbc5UQZckkWb18ZTQD3oVEpzibbOjzQsTjFnwq8BTIlqSQV0DZv6fnO+GUZnEpVne/NcAZPaIJ5Hre+b65p89UYeZVnlZa4FB6tT7Q/ByKNJ3jJQjHxAz892FXFwvVN5c7B18PZC5WUhj+JZLjwfXXYUWwRXLtl1ZNj4M2J07SV1lodvLqpd1RzsK3/9JuWqvH44v7Z52D09Hd/6jP+3r3n0p+MrIr79DQ==);lineShape=1;strokeColor=default;" vertex="1" parent="1">
          <mxGeometry x="351.30199055808225" y="261.0181903039536" width="105.36299457634763" height="168.834948045745" as="geometry" />
        </mxCell>
        <mxCell id="4rlQAcrJpYn7l9h745Ok-3" value=" The given study shows significant accuracy by using Blazepose Architecture and Mediapipe &lt;br/&gt;Pose Solutions Tools with Classification Models. " style="text;html=1;align=center;verticalAlign=middle;resizable=0;points=[];autosize=1;strokeColor=#005700;fillColor=#008a00;fontColor=#ffffff;" vertex="1" parent="1">
          <mxGeometry x="-9" y="454" width="504" height="41" as="geometry" />
        </mxCell>
        <mxCell id="4rlQAcrJpYn7l9h745Ok-4" value="" style="shape=stencil(7VnJUhwxDP2auapky+uZJP9BFRCmQiBFyPb3kTPlpi2P3xSnXLgNjdTW8p4kqw9y9f3++tvtwfP3l+enL7e/jjcv9wf5cPD++Hh/+3x80V8H+XiQq7un59vPz08/Hm9Of3+7bpLt19enn+0Nv096TFmakuc/pwdVKOZ/Tz6d5B+Ojzt5IeFRPpCva/lINVj5Imv50v+7yUfispZ3niRaBc9AIVGcTvBpreAdeTcpAJd9olCsggMmiSdONkgCnJZCbKLqqbi1QtD3GR+YGKQhMqUxSiVSAibFRDUPCrlSAiYlIR6RlDWVAHmpUByjlAKFsFbIQsUPClHRCBKXC6XRh5ApegBWITdGSWp/xXmFTH40SXOfATTqlAdFVwV5UPqGERoeQ0OxGUenXcUmbQZsCpkcyIMqsDlBsA/BOu24U2rltPEhXwqSJCOPGK3yfsSqUhywR+XdKB8pRChvCoAiG+VM5esIo+7Q0p5RHlOtxWcEkaOA4xNHeW0rOP65GnmPAWHio9ULxUfLnVh5BGkFHFt7EKK1h0XrL6gTygBnaN9L03l5heP4/ty73Hn5MhHGUUWAqBQNhxPumsy2XPst6SubZDxCYkftSoFHpyX1zruKUgpWoSBYZ0tjyRhHiXK2J0TkQyKp1mnUNs8gI2Aqx57YfQdBTquCCauDE1Ur16ZYVArIpGRHMJ3iYKY1rOM0ovh2ONNu6oIJE8jguylgaNRqTUJTYYN3sE4LMqlMJmmfvUBqQyDX0bVUMJkWnOlCwcB767wrBWcUIhV0Qu59YEegjDNtsNQoiktrddMJGHxxUkCjcE1T1cBXmEYgtnmA0JguSZrpdGGiMnyoeOBJtqEoWiOufG9UyNOIwX1eX/owFjJ3AUvBXlW1yQmK0v+YCrE971Ph+1S4p72RF8z6rUm+4jPiBiLjbNEIg/vBfLPzuGuaXYpCiC8ULtP5Q28pK0wU0zVzn5jOK7hpoHJwitQreZ76QQUnFLFjZ1AjAc9ytV0zOgiMvK3UtsLCvRyvViNmetEnaChM0pm+QQl3zbgBYdsHBbjTikzFrKgwe0LoxXC3BEN0kGKHQoUjqqc6KJv6q9cgBgqtnlergCpYWxWOJ+zuTcttpH+bhrdVWI1CW63S1z97ebT6s4xrTsONsF2PVtiW2dJHyw6CHk/b1AJHebZVvo25oACwzVm7iAJ28oQivCRkO6u1kRWgbrpot/sVfv+0nkb7O56WzXg7rf5OvESDHfd7004eXe64Z2eTlwt4MFOdyqNF81u/cFyW1x+vn1Pujg8Pp68x+//bzy/66PTpRj7+BQ==);lineShape=1;strokeColor=#FF0000;" vertex="1" parent="1">
          <mxGeometry x="530.6706366264623" y="414.19696983798576" width="216.87924967266028" height="56.98009713647887" as="geometry" />
        </mxCell>
        <mxCell id="4rlQAcrJpYn7l9h745Ok-5" value="" style="shape=stencil(7VrLbhw3EPyavTb4JvvsOP9hwHK0iCIZspzEf+9iFhwPmzO18DGAbytt1wz7Vf3gXuK7L48fPj9cgvvy9vry58M/149vj5f42yWE6/Pjw+v1DZ8u8f0lvvv08vrwx+vL1+ePt78/f+iS/dNfL3/3J/x7wwXJpYOC+3b7hxPn/vvH7zfxp+vzTrxKqUY8lHNxH8RZ+daIfJGgk7wXrefyeJyGST5Ki0Q+i5/VzaKZyKv4+TxNPJGPUVyaz+8kE3vGItkAgigDqNRZY58l+nNAClLzDKjDaMeALHXWGU5wxAmpSZ7fEJIk4oXsJbgZ0KgOOUqOs5thaPaGPMJyA1RpSgDFmjVF8cRKuVorwQyBhHZuVocMzxBPZ8TeHBo4ZGFKq5RZh4JkJjrg62AAgaYnADqnc8lSGMBLmf1Q4GmSQDhAmgEVjEGsVOKw+gaIg0OOAUn87IeKgCfBB4DOfqjQgSmN581Wak4qYclSBkdsAJAAO1K1rNGyJObpJMEcCfnAjuQkGuIroiyB6kiX/ZFYtMbxvA0A7mYk4IeKG8BT8k4qbualqiNpz4isRguIiQLK7DiERuNUaepnjyV+JBt8YG9iViidnAVk5oeNI3aAwHjJ2YJSERokluA402MAwKo0iDH5BcDrQ0jLkRggjS5npzSl+yQlWwAN7zwahR2g3SFjkw8ok+QNZU2gRCsQWCMZEig0luri6aaUvUG9ZSZjRdKS8Iab4pxxGimR1SWBNI8sPwTAiGnWQevoAY8Bcai4O1IlZgXPxUXpwt4APzRr1kQyDl+bOo1HBGIl3brsHRk7ooMG8aYCRUoCmkb/tSOyzN6QrFkBYI4DQJcEKiSnEQi1WADrKrWM/mtPAsRxukw/d6hSYZMFkNiRkF/LkSopKAC0pQIFYlbv3EJ9jVbF/oqZZ+5URQAMzwDQGKBZJdAwBQbYauAOwMYsuFqXloyGaxHnLYAxmS6TZXM8R9N43t5KHOBWP7BgWgpE9zSLb9QPbwF3dDBTUw9XltR5CY1K+x/4IS4AzwB14RkAWAa1ZYDAI5jSOqh0T0ykjAJghqBOfSz41EZr3RrNU4B5g3Im+2lAs7MlRhTW/8AP2SRQolMTPG3mMnQnNDTS0s600WieFTnjB9RJtmvB12VuKzVSXsIByqw0Ap7xElQ0rYDyIod2xlhpR+jHHVMd3Lu9YuPnY0Cy06jyZrqG0afutGZlsSAhdLErORIG5Lq0WCxcy9LEwTWMXLNKNvFdRik+3TCZ+I4jRc6GGhvffrQTv8bXX+PrcqT/1/iaiyWBqrS/z832Dn3eZatBTHJm6RWoH0q2y3iUoMoAC5GBBDxfb9pJLtJ86AvUtCjNmG9Z0fYU5Utgc6TKdeh+WBaolXm62U1f9bQly9Vya2mjsJ4BnNkaZ3oNlJcFKgoA67AAMN06DM0KCvKhzTmNR7C9dE+gmSpBC/QGItmNa79XucMas+NSHLuOMyIze+nYeI1bRsUYaXeSqm2Y+gUao/s0eG4DZKpDCjY0QqDrfqios5U832HFYq8sfaFFsV9FmQu2RPvQsF7hcR36JaW5FXVjFjwGhIX5xjh7vBRYUhr5weSXO5REizSOayNvXBked5S2HgZ6YxnsRVmgjRXquVpxkgXejnvbFdWh+DIzBHpD7sYI/0OcdfPO7gA8vUNcEtjTGcwtkTyy7UTclEtHh39nL63cKFUn4mb/d+enBnbP68ZK80TcpJSjGfKTP5O4K44PP36R8en69HT7Qcf+e/sLDvzr9uuP+P47);lineShape=1;strokeColor=#FF0000;" vertex="1" parent="1">
          <mxGeometry x="529.4186124881355" y="468.79332842986787" width="80.67897528250438" height="141.61616250109714" as="geometry" />
        </mxCell>
        <mxCell id="4rlQAcrJpYn7l9h745Ok-10" value="Prediction&amp;nbsp;" style="text;html=1;align=center;verticalAlign=middle;resizable=0;points=[];autosize=1;strokeColor=#3700CC;fillColor=#6a00ff;fontColor=#ffffff;" vertex="1" parent="1">
          <mxGeometry x="550" y="432" width="75" height="26" as="geometry" />
        </mxCell>
        <mxCell id="4rlQAcrJpYn7l9h745Ok-11" value="Predicts the type of Badmintons Pose using Different Algorithms&amp;nbsp;" style="text;html=1;align=center;verticalAlign=middle;resizable=0;points=[];autosize=1;strokeColor=#6F0000;fillColor=#a20025;fontColor=#ffffff;" vertex="1" parent="1">
          <mxGeometry x="762" y="414.2" width="361" height="26" as="geometry" />
        </mxCell>
        <mxCell id="4rlQAcrJpYn7l9h745Ok-12" value="Limitations&amp;nbsp;" style="text;html=1;align=center;verticalAlign=middle;resizable=0;points=[];autosize=1;strokeColor=#3700CC;fillColor=#6a00ff;fontColor=#ffffff;" vertex="1" parent="1">
          <mxGeometry x="485" y="531" width="79" height="26" as="geometry" />
        </mxCell>
        <mxCell id="4rlQAcrJpYn7l9h745Ok-13" value="1. One limitation is the challenge of collecting a large and diverse dataset to ensure &lt;br/&gt;comprehensive coverage of various badminton techniques and scenarios.&amp;nbsp;&lt;div&gt;&amp;nbsp;2. The model&#39;s performance may be impacted by outliers or unusual poses in the dataset, &lt;br/&gt;highlighting the need for further data preprocessing and refinement.&lt;/div&gt;" style="text;html=1;align=center;verticalAlign=middle;resizable=0;points=[];autosize=1;strokeColor=#6F0000;fillColor=#a20025;fontColor=#ffffff;" vertex="1" parent="1">
          <mxGeometry x="395" y="622" width="496" height="70" as="geometry" />
        </mxCell>
        <mxCell id="4rlQAcrJpYn7l9h745Ok-14" value="" style="shape=stencil(7VrJchw3DP2auaLADSTPjvMfrrIcqaJILlnO8vcBM0WlCXS/HuWUg2+jFl6TAB42si/pw7f7T1/vLpG/vb48/3r3x8Pn1/tL+ukS48PT/d3Lw6v+uqSPl/Thy/PL3S8vz9+fPl///vppSI5fvz3/Pt7w5xXXO3EfqMh/XZ8w1fDPg5+v8o8PT0Y+LPKJcobyoSzyQixQPvMiH5hygQBZFQiFWjsGBGbidYkYibEOPa2ARhXvKa57SmU+2QdUanEB5EAFbalQaSugUgBa90h5XaFEimCF1khkBQhJAoBMYjytngNKN6awUkkS9XoMqIXqqrQIBgRKq+OkUwM66PuMH6raDdBVIpVVh5qpx2NAacR1BVRKIOBKsp6uynigdG42IJp6GrA16woGkKcZdgFJV1iVbpUiA0ByW+owa8Q+dzwBXV0JthQL5dWsSvgGlNaQDyu9e55P9tNGp2RWKBQAvTUN8eq4LtNu+/FAZU1LmhUy0pmE7YYq2pCTz/D9TL1ZkwZAPC0cxqI8a8uBvKwGVRYhl7FjnSZBuJ9sSJeowf0k8/4IScoUq5UPUD6b9wdqgA88/7uRLyDKwsxUG/kIkl10+oZZ2/ej2Mkz9Fe2FUflK/CXerO8R15sgTrZT3XyWN9mU/uJPbvNKCf+6lScPOJDp7rG7wnfVD5b/qPC0V18yWT40f7N+9XCIJ90Z89GHdtnLd5aAwK0v6z70XxVUEs0s+UmHzLq6qiv+9d8i/jWZ2+yyeeo4wppdt6bgpEBIbQk7VQAANCQKU7lDlKiFu7magbiRNYQNEqnGXb7ALEsVUBA/dBbEN7o5lLn/LDhUUWANmm8AQgC9MmDLQCYVXxpDbDjkjCbyo3SiKujLxULSLiRbc6siEsSHVsTnOwUEB0gISsF13GlOWIcmTWxBSCzFjf8DgDmUmvvWkFcAOF4KIV6sYAMsqQCcnJ+QDoUO5wOTyMdik30g0uokIvrreOceo7Mav0Q4JymIRpdiFZkpbd548aYVi75JAC7keDKT4DDqcZDcn5Ac9qIOAcoKICiI1+c7DoCZBeiEVnpzYgbAOrJh1kdAJr1vQCdl5sb7FB90HnZ1ukCK5DOy5atBXIpiavTQgkNp32qeGPrMA7hTBJoFEBMh+rM2uep2D4g2nM8BVSU7u00uDl3OxhHLPd04objFLtxGdmIZ3W6sX3jeZ52Y3vI9qzppC/hnYyE2lt24x1un9mNX7g959kf3Nj+s+3DTsaLH+Pyj3H5/z0um+Prk+Mf7SjW/HByvNRdfOHjq+74g4/H+sx+2+M3+P7gTkxR39hnydrmQ3Qf4EaWAq80tMKIK9xoitIaZgfyBO9ANOQNRUeLhupwcUcQPJ/sxzzPi6RNkkZVMmWrg2ZdZKWks6ZZIUOlc56s3MSNgBWyOxepHQ52JdvD+ipwdBwDtgFkWOq1L+2r0jXAWJNKydwU9Tkb7ie7YDsukRnf+wCZzcAbQDtfUF4125p8oa0tatHUr6an07kK3YEo1YIBRJixlf0mZeSKL0KT7VlywJezjnzjIhRd/xZ7CXJ21erK4LjMxSsEd18MjyGzjbhxI40Sa7ZpRuA9yDhSWxPfyZV6tp3pyZW9i0/Gd8vZdkY8o+lI3iQMho24esDQDgfCONS0+4EslZlMNvLIwWKv90/kq+XoyX7arJM36tvsXeaJPZvtfE/8pek8Xt7Bh//wiQiW1x//fo/y5eHx8fo5y/b/9vsVfXT99iV9/Bs=);lineShape=1;strokeColor=#000099;" vertex="1" parent="1">
          <mxGeometry x="-18.233036508848272" y="507.94234005828" width="60.64348825080814" height="207.39848458851804" as="geometry" />
        </mxCell>
        <mxCell id="4rlQAcrJpYn7l9h745Ok-15" value="&lt;h3&gt;Two Stage Pipe-Line in the Blaze-Pose Architecture&amp;nbsp;&lt;/h3&gt;" style="text;html=1;align=center;verticalAlign=middle;resizable=0;points=[];autosize=1;strokeColor=#6F0000;fillColor=#a20025;fontColor=#ffffff;" vertex="1" parent="1">
          <mxGeometry x="-196" y="734" width="364" height="57" as="geometry" />
        </mxCell>
        <mxCell id="4rlQAcrJpYn7l9h745Ok-16" value="1. Detecting the Region of Interest From the Given Input Images/ Videos&lt;div&gt;2. From the Region of Interest 33 Keypoints are detected by passing to another Network&amp;nbsp;&lt;/div&gt;" style="text;html=1;align=center;verticalAlign=middle;resizable=0;points=[];autosize=1;strokeColor=#3700CC;fillColor=#6a00ff;fontColor=#ffffff;" vertex="1" parent="1">
          <mxGeometry x="-242" y="855" width="489" height="41" as="geometry" />
        </mxCell>
        <mxCell id="4rlQAcrJpYn7l9h745Ok-17" value="" style="shape=stencil(5VnbThwxDP2afbUSJ3GSZ9r+BxJLWZWyCOjt7+t0lWHizBxUqS8Vb8OQM4nt42M7ewhXz3fXj8cDu+eXp/OX44/TzcvdIXw4MJ8e7o5Ppxd9OoSPh3B1e346fn46f3u4ufz9eN1Wtqev5+/tCz8vuBzJu4Zi9+vyRijWPy8+Xdbfnx7W6x3VOKz3kZzfB0ihLAOAHXmwgyQqBlCpFACIVMIACLnvuQeoeQBEfcPwSDwCkqeQ4Q7MI6CSQwCmbMIgeAemVAdA1k8ECJAyAioJCFzMJKMNpZBL+4CggRuPVHJ3wyZAiWCM1iNlcCQfyE1GR+ClTGmkkmRywEmTU8URA5MdRT+GORA7tN6NBkd8Hv2+Wa+sAA5ShyZL7BSBQ6mYROD+ZjvEPTzLes0DlJrkR/9HzX2wXpNk5GioFACDPBOPAQsFGuBT5/waACLgi1UjPRIjCnmrRmoz5FykINapSCDVq8ZojZqgHTQNzJFi/8QeoJodBKd+7LRfEoFh4JpCjzukAt3aiDbaoBqbQKRjsoUt+55N24BiyZ0LBeClFG1lK9IVcK+M5EmCE3Brll6WVnrnUHWu0w6OEohDCRSNW/VIQGFU0mO1AJjS3pKv7QACVzVwwdogwIaaN7zEQPVqnWpnfAtQjVul+20P4EYhVi5Bo2Wqnar96EihV/sFoMIDAKVOO2DVKMmmqAIy4pIeIFmABxmnPomT0ciGLJNbl4qxDYjWhpZSKIFiP8CKGhkBxCpfxl5So/NE7wpsaE4cjZYly7cBWnXZAlAfVp3tVhUQQANdl5Z/ZQPqezRFZzEWoHyaQH7sTHLAnYybequcenu5qwIGkOGcoUbYyNXeHPwbQJmGMW25M5oClP5j5JqQAL+miX0rx22XRbEVoqkh0I3Adm6o3Nvk7W4j9UlnpRuMAJ54LLwaaiRlXjrZFoIXOPD5eRzT0QNEbtl/PQgA2XiHjf14nnfS2Cfr1P+sseep3Yu4NHCx1wxJerbujQ6mlghTBYKkYUqmWumeYIc2CZiaHvoF0N5w4gxAyQKyM2RbQLUJSMiG0rN9Pc0gFZ5KdMokaPzxNqPblRVQDKWa6RqUS6j2NEUx1264t2qXbOZir5BHN1BlumvEN1BqomGr97AH0BEujWyNve/YXp+6Ki4mUEUHEhsFD1VMy3McddJBl4qz53dv3RpWb9YjCdOJNbBdD/wpCylf1zMqI9VyyMH2pXWN2fhTUHc+XRjiS9ImDKbswF5Hh4MwMjTBzuWvb9vfXK8Pr1f7t6f7+8svA+v/258C9NXlZ4Tw8Tc=);lineShape=1;strokeColor=#990000;" vertex="1" parent="1">
          <mxGeometry x="-4.068746464483638" y="790.8958431646656" width="23.256360887250214" height="43.43090112773792" as="geometry" />
        </mxCell>
        <mxCell id="4rlQAcrJpYn7l9h745Ok-18" value="" style="shape=stencil(lVjbchoxDP0aXjW+W35O0//ITEhhSiFD6O3vqx0qwPLugbwti85Klo6OZa/i08fm5X29Cu7jdDx8X//evp42q/hlFcJ2v1kftyd5WsXnVXx6OxzX346Hn/vX8+/3l8lyevpx+DV94c8ZFyj7CRTcX33Rzi++ns132/2NuQ/kcmfvKfCyvfzdSmfvKAL7GMlbe9eW7VOmMNiD+HMhdtbeLduXSsl+39dl+1rIJ2Of0rI9R3V/zacD+WEmb+1bXLZvmUpfrwTr2xql0H/fU8KA//4vgEw1AAY5Z5c8rRnUQFzUPqYgVQFJEoDvFx2z0nAewBR7D6koz+cBVZOiACEWDKlYnpaiTF8qXOjXUBNFBEhKNAWwo4wAkbj3wFnzNg8Qaeg9NCkcIB8Xaq0HSFpRNwRKBlCpgpCk3VpfB6k9Cql6qgOgAoG5lunCb3dHMpyl6+QCaEZqFExMTA4BKrG3acqAfcJmG1LRTywBjMwLHxkUQnSYuQckVdolD8GEFHGWqlLnAgjECMC2gwTgUZakTL2UCb8RN7Kn6AcAYF8OtuUkJAfEMifLPgEUtL9JCw9pTaBwAihm0emzgKwzxKMhFQwYF10popDGtFaVqkcLJ2QBhZuhBsM5YIZ8omSIfCO9K558xgYSqcKjkm3RDLegGRGQymDVsDIT4Y4yI2QBjoeTVBoPnhi1qNOs37Yo6rigVHvUw2cBxduRW7KENurqhjpEakBbK1MZVKMCAOdhFGhQ7vmy31wAiQra2SWk2gOc7nrzgGY9yPyDJuMmB4t+digZ1kHKZEYymeECBhgupTsegkZ8M4cyWoO3w7RMuhmwtQ1cklkatei4aF9wWr3VJTkCoklXKs29BxFvoJQs3dI7yFCKa9aJ8HqiifgEF/t4ZO5FAlBsL8hcApgtHIhsvw+6WU64ybBIj3TzJ+hhc0tw1vPRsjRTQjsVxZ5yVffG+fAt4aq23Xz0VJo1B8n0dpyvcIfydnAuMPXOnoWLHu4XzIMlZgOJdzrJ3eQdSOhwCk5Q052Orjesh7HnPnZMSq/njas5urXw2hFXcw9a6pN3THfN5eF6nfW23e3Ot2G3/9vrL3l1vjqLz/8A);lineShape=1;strokeColor=#990000;" vertex="1" parent="1">
          <mxGeometry x="181.78194444235055" y="761.499530120449" width="51.00780030619023" height="76.74233479007972" as="geometry" />
        </mxCell>
        <mxCell id="4rlQAcrJpYn7l9h745Ok-19" value="" style="shape=stencil(rZfdbtswDIWfxreEKOr3uuveo0DTxViWFGn29/ajZ8izWPtkA3bnpvpk6vCQogd5eDs+vR4G795u18vnw/fx+XYc5MPg/Xg+Hq7jTZ8GeRzk4eVyPXy6Xr6en+e/X5+mldPTl8u3aYcfMyeZpE6Udz/nX1golN+/fJyB03heA4EKd4BP5B0AHNUeCBkCvlD1HRArlQiAQDF1QBZyAAiOAlsgAiAGSqUHAjxDKhSiBWLYB0qm6iwQAFCZsgkpEnsARPImpEwuA0BDCh1QHDlgjVop9iEVoQLOwE437E896QASoa/gPibVoaKYMnH/BtUhIpnCO6AQVwC4lqcFqJQZpDpRZAtUEFLxlMWGVID7cm0lvACJAki1OoFNSEKMgEgl94mrzV67gPEGtusUknEfw5LTQ8deJd3inqx969Mg053EGSC0VO5Zw2RagYzsreYznUybKzKfqmSKuuB6qC2vi6y+6fbXNao6oL5RbTtWHRKuUdP7VIeAWxn3idAtIMCtIlclJ7gdl95MKx3+E6F3hBcbVAZB6S1kj60XIzi2VOuOCQBv8NICWAEeuYPJmZASCQKa7IuZ1K9pf/0786lqCeyf2sW/zA6x9ZFtZ5A3wwm3Zrsdv7T7aRl/uG2xDaQ2uywnhtXD2Vo1wVmGq23d0oy4nWLX+sNyAHLAQ7qdUchBgbz20GTWo/hVDu/sejxOmlHMta68vd7bhHFr+7vzbTF6onlB1O/9eVUAtL8O3KadwptW1ycTv8NF/88T/X1AH/58QLyMp9P8/bH+v/3g0J/mjxV5/AU=);lineShape=1;strokeColor=#990000;" vertex="1" parent="1">
          <mxGeometry x="200.27574396227533" y="824.581354099653" width="22.07662492891335" height="20.992408297725937" as="geometry" />
        </mxCell>
        <mxCell id="4rlQAcrJpYn7l9h745Ok-20" value="" style="shape=stencil(fZbdcgIhDIWfZm8zQAg/17Z9j85U606tdqz9e/tmZ0c0uJ47xP0I5JwEBl59bp8/1kNwn6fj4W39M76ctgM/DCGM++36OJ50NPDjwKvN4bh+PR6+9i/z74/n6ctp9H74nlb4nbmSKZeJCu5vngmZ6jzzNAO7cX8FVKEsBuBKrgKg9oAE8gkCbLeUhEoEQKSUDZDLeWYRKIl8MEDRmHwfyBrBG6Amyu4+kDxxMoB3jhwgYu7TVAsVkFcWCs4CTBEoF4RctKeOxHIf8IXYpikHikAIf+MNUW94AGSSaoAoFIE3AlOyeWU+p2E5S9yfQZcQILVuQOwZdJNoS9Ls3wA5u2XZTIHECqeJ9kDpSaauRiNVcAY1QhdBzeLBli5WazpkSsBLV25uRaqWRyFawTQzRRIQYirJzq5atkBqLfouwqUxLBepthWb10vrWZY6UOAeyKCCtDV625mm9gmUC4Wc3VLJMMIE1BsA2FW9JraVlQB7n3c9oMKhCLEvIM1zBPZ25/umNQ1tVEC2G+fFCC8g398O2hNQuQlVu752DBfA+q0ptnqO5JFmeuIuo9DY7KjY71UxdJV4EntifPWorW++R/dC4t7V3DlIB5cHx2bc7eb3yvX//QNFp+bHDT/+Aw==);lineShape=1;strokeColor=#990000;" vertex="1" parent="1">
          <mxGeometry x="182.9663002700404" y="748.0266639674383" width="4.918462918016016" height="4.910774964586572" as="geometry" />
        </mxCell>
        <mxCell id="4rlQAcrJpYn7l9h745Ok-21" value="" style="shape=stencil(lVbLbhsxDPyavRISqQd1TtP/CBCnXtS1A8fp4+9LYbtbk9WyyG0ta0RqOBxxooe349PrYcLwdrtevh5+zM+340SfJsT5fDxc55t8TfQ40cPL5Xr4cr28n5+X369PfWf/+nb53k/4ueAoQsgdheHXssJQloXPy/7TfL7fT1Ca2o8BEu8DkgCqAsgRse4DcoakM8oBYtsHlGAjFILmpMQFGipALUC0D2gIKWgAQywOoEBhzarwHBxAA9IROEF26hBDWA/cEAzJy4mhaoBci7ycMuSkAXllegwIwLpyEhMdXjlDjBrQ1iSHAKG9JQv4szIGILRqU2pOhFKBTYQCNTqABMFEEMV7EdACuAE7cu0AnZLw1hxtdPnrHmUERPfSRhq1QXBaTmhlAyjAjjSkcFVLo+b1iLE0EjSygOakJOIzxlQrJK+pxWfQXtqjVZRTdEpMQI40ujZNHSpER63dBUwDbfa85zNV+0xLUJxKS8tnE0FYcmjtGRvX2JIcA6L1pTurGmsjrR15H8JpiA8DSC6hS93d1QFgsTSJ4oNjrkg2QpaectQXE6B2gbRZ1TgCoK50D+nUQTjXYo3R9YB/nxNgJ/+wtvv25kJ2aiyy052QgBw6s7VIwTvbeWViuytEp7rChBkYgtvHMdvn3xd0bDafsBZ7TA5a64pr0433i3VGQ09ybEX4oWTY96RAwYrZH48+PEP+d798/B1YX+bTaZl37/+3A64sLcMxPf4G);lineShape=1;strokeColor=#990000;" vertex="1" parent="1">
          <mxGeometry x="181.21196268778954" y="759.7237336968799" width="14.89103719694293" height="23.43853472871759" as="geometry" />
        </mxCell>
        <mxCell id="4rlQAcrJpYn7l9h745Ok-22" value="" style="shape=stencil(lVbLbttADPwaXYnd5b54TtP/CBCnNurageO2yd+XqiDXpKQpcpOlobnkDGc58MPb/ul1N6Twdr2cv+9+H56v+4G/DCkdTvvd5XDVp4EfB354OV923y7nn6fn6ffr04gcn36cf43/8D7FBQphDErhY3rRO3H6++brhD8eTgZfxOBbJuZtfKFYDb7w/GYVHxs1m4ALSdgO4EgxmoDElPN2QE5UbMkxUxZQQps7cquZpG/jtSOSbQIqoKU9UGKDDxRBS3uhHj2+beMlUmjuPBX8vxTKFq8UA8qkU7Ec9znhOsVhIbqYiFEFQrXYgEodtFQaFUuB9kiAKISpW9mNRUdAglC0NaRKBdTQmao7UoOya30h7EoCMjSm0G1AoQCIq+KFocpAGWpdjI5SDXioZUGctgG0VTNUm0EooQT62fkLpE17xI4FSqinnbKfNWQuyrJUhw/AvVRGbHUXIV7ybA03e4T2q4PQbD8rtQInrVmviwHarwaIMxdlAGXQjtoKosyTsWVHjuKxZnSk4K8QFYUgAwvUw2cCKnuH50wN0JD7wlILHH5mf6SizIAjqeeKHf6mfQMZNMAZWL/N0npA8zavF4uAolVqyWpJ1ZtRgIrb1iB1XjfWA/Ritfai6kLSULvKVhqq34zWkcX+cnd7rUdEat2n6KCIPi8Hd3h0/Re/gY0zDixM9y3XowLPE71D6t1YQcFhNtA7WaA74fMb5//w+vBvvX05HI/Tdnz/3a/D+mpapfnxDw==);lineShape=1;strokeColor=#990000;" vertex="1" parent="1">
          <mxGeometry x="183.71711240465265" y="746.9664630868624" width="16.620145270426534" height="20.784844886694422" as="geometry" />
        </mxCell>
        <mxCell id="4rlQAcrJpYn7l9h745Ok-23" value="" style="shape=stencil(7VhJUhtBEHyNrhW9L2eM/0EEwlJYRoTA2++dY7nFdDWd4AiO3Eajyulaspaujb963N08bDfOPD6djl+3P/e3T7uN/7Rxbn+/2572T3ja+OuNv7o7nrZfTsfv97fn3w83i+Ty9O34Y/nCrzPOiksLyJnf5xcpiDF/33w+yx/29yv5IrZ28hFv/FzeRrGhBwSJdQ5wTpLvAY6e4I1E1wOsWEsARao6wUgmgJClOA2IcQ6ISXIdAMSrKeowABDKHJBdc+JbAWVwKwAkDsWLHwCGxKEMRocqnqhUjT4hgEuMe1miAgRxTKXYvtcAPkllRlupPVtdEkeoUYy42AFslkpsyFWKAkQpxAYAVKStl5AoICiAaYSfntCrVMRnKp9zzwypJBvgI9uHzTemzORTn26OE8+2EDV50xScyZek5A3haUGuBS3PaOrFGSX/7wMz+dLrbyWRAJeg8wapyvQp2l7L6121EvsAg9SJnFDRM1TEvFSW+lnXCg9SE5Wsufj8kvtINBLlWlparTpbIrSrSfeRnGjcqhPfA2qkVX7xa08kKGkdrZCx9IDKqTGkMgCVAcoLKrHIoQannhvwW2HszpobFenPykUaTkDsXwGo+pV4H0nNJxcAQsltUAmBGmiZSqWxecWlwmpSHQBRMil68EmIGlBIpEG+oOidxXF6O6+Npio5yT1bUdkMU8m3ur4KHGueOEG1Z7iBNU8AVE6jVAVmtNWjHkqVZzagt/aBQ8Y5lkAYAHR7fqWfDPUbRzAjQFftpkvWzgCqg8JNlK6ppfAFYFtTmuZo71ecyQo+ACoQIBObufE91RWf5473AcBEZUOydBKDE726+9g2Ls7IVFSTs3xUQp1RA25sjJ/NGqqSLZ2aAd5nwCVsfXnA5fPnx4D7MeCu5OPAIEvnKqSNSkx3ufjNUt+rPPPUpWhtqj2H1LrjtLj0KqG4FBa04bqdXKPVGy/0OIGNeuPKAIDI8mxYSiRLibGsPfIAIMyOSRdIABJRaVndDG7NRKVlOTSoxLzkzeAlRxcrSPaqbPA0cKifUe3oEl97DAdUOho6fbXCsMrSx7bL4ErekagN5Qvyhsgb3UEyb2rDAjCHdiOYyCvWZXRFMougGva0BtEtocRwVc2o11R/0/sH8XJU3ir5TPsB7FVpmVp1mvlT8S2Kp/JqosVNm/nzf3fOr8vj4XnBfbc/HM778fX/eiGOV+dlur/+Aw==);lineShape=1;strokeColor=#990000;" vertex="1" parent="1">
          <mxGeometry x="248.57147760432395" y="792.4226651378901" width="90.96454190554117" height="23.962332415139826" as="geometry" />
        </mxCell>
        <mxCell id="4rlQAcrJpYn7l9h745Ok-24" value="Processing the Data using the Media Pipe Pretrained Models and predicting the regression Points&amp;nbsp;" style="text;html=1;align=center;verticalAlign=middle;resizable=0;points=[];autosize=1;strokeColor=#A50040;fillColor=#d80073;fontColor=#ffffff;" vertex="1" parent="1">
          <mxGeometry x="363" y="796" width="540" height="26" as="geometry" />
        </mxCell>
      </root>
    </mxGraphModel>
  </diagram>
</mxfile>
